<mxfile host="Electron" modified="2023-05-27T15:49:15.733Z" agent="Mozilla/5.0 (Macintosh; Intel Mac OS X 10_15_7) AppleWebKit/537.36 (KHTML, like Gecko) draw.io/21.2.1 Chrome/112.0.5615.87 Electron/24.1.2 Safari/537.36" etag="HoBQbBsLqvkWGAJQNnxy" version="21.2.1" type="device">
  <diagram name="Page-1" id="H1nZVYqxkzLZFgEqRADx">
    <mxGraphModel dx="938" dy="4280" grid="1" gridSize="10" guides="1" tooltips="1" connect="1" arrows="1" fold="1" page="1" pageScale="1" pageWidth="850" pageHeight="1100" math="0" shadow="0">
      <root>
        <mxCell id="0" />
        <mxCell id="1" parent="0" />
        <mxCell id="AsBp8XiL8Dx4Y6rQVwFH-6329" value="R, W: 129, H: 118, ORDER: 17, GC: {51, 35, 43, 16, 19, 11, 32, 67, 30, 9, 8, 15, 1, 7, 34, 6, 28} " style="text;html=1;strokeColor=none;fillColor=none;align=center;verticalAlign=middle;whiteSpace=wrap;rounded=0;" parent="1" vertex="1">
          <mxGeometry x="2730" width="1290" height="30" as="geometry" />
        </mxCell>
        <mxCell id="AsBp8XiL8Dx4Y6rQVwFH-11209" value="R, W: 129, H: 118, ORDER: 19, GC: {46, 28, 17, 11, 27, 6, 5, 1, 4, 21, 3, 7, 18, 10, 34, 8, 23, 72, 57} " style="text;html=1;strokeColor=none;fillColor=none;align=center;verticalAlign=middle;whiteSpace=wrap;rounded=0;flipV=1;" parent="1" vertex="1">
          <mxGeometry x="2730" y="1350" width="1290" height="30" as="geometry" />
        </mxCell>
        <mxCell id="AsBp8XiL8Dx4Y6rQVwFH-16787" value="R, W: 129, H: 122, ORDER: 20, GC: {58, 38, 33, 5, 28, 20, 23, 64, 14, 11, 15, 21, 4, 25, 9, 10, 8, 1, 36, 29} " style="text;html=1;strokeColor=none;fillColor=none;align=center;verticalAlign=middle;whiteSpace=wrap;rounded=0;flipV=1;" parent="1" vertex="1">
          <mxGeometry x="2740" y="2670" width="1290" height="30" as="geometry" />
        </mxCell>
        <mxCell id="AsBp8XiL8Dx4Y6rQVwFH-39052" value="R, W: 129, H: 118, ORDER: 22, GC: {42, 54, 33, 13, 20, 8, 5, 3, 2, 22, 30, 12, 18, 14, 24, 4, 10, 21, 43, 46, 6, 40} " style="text;html=1;strokeColor=none;fillColor=none;align=center;verticalAlign=middle;whiteSpace=wrap;rounded=0;flipV=1;" parent="1" vertex="1">
          <mxGeometry x="2740" y="4120" width="1290" height="30" as="geometry" />
        </mxCell>
        <mxCell id="2XZ_QVLFFnRoiWn84GSk-1" value="" style="group;flipV=1;" vertex="1" connectable="0" parent="1">
          <mxGeometry x="2730" y="50" width="1290" height="1180" as="geometry" />
        </mxCell>
        <mxCell id="761dnnyQ54j-Cl0NHfQN-6330" value="51" style="rounded=0;whiteSpace=wrap;html=1;" parent="2XZ_QVLFFnRoiWn84GSk-1" vertex="1">
          <mxGeometry y="670" width="510" height="510" as="geometry" />
        </mxCell>
        <mxCell id="761dnnyQ54j-Cl0NHfQN-6331" value="35" style="rounded=0;whiteSpace=wrap;html=1;" parent="2XZ_QVLFFnRoiWn84GSk-1" vertex="1">
          <mxGeometry x="510" y="830" width="350" height="350" as="geometry" />
        </mxCell>
        <mxCell id="761dnnyQ54j-Cl0NHfQN-6332" value="43" style="rounded=0;whiteSpace=wrap;html=1;" parent="2XZ_QVLFFnRoiWn84GSk-1" vertex="1">
          <mxGeometry x="860" y="750" width="430" height="430" as="geometry" />
        </mxCell>
        <mxCell id="761dnnyQ54j-Cl0NHfQN-6333" value="16" style="rounded=0;whiteSpace=wrap;html=1;" parent="2XZ_QVLFFnRoiWn84GSk-1" vertex="1">
          <mxGeometry x="510" y="670" width="160" height="160" as="geometry" />
        </mxCell>
        <mxCell id="761dnnyQ54j-Cl0NHfQN-6334" value="19" style="rounded=0;whiteSpace=wrap;html=1;" parent="2XZ_QVLFFnRoiWn84GSk-1" vertex="1">
          <mxGeometry x="670" y="640" width="190" height="190" as="geometry" />
        </mxCell>
        <mxCell id="761dnnyQ54j-Cl0NHfQN-6335" value="11" style="rounded=0;whiteSpace=wrap;html=1;" parent="2XZ_QVLFFnRoiWn84GSk-1" vertex="1">
          <mxGeometry x="860" y="640" width="110" height="110" as="geometry" />
        </mxCell>
        <mxCell id="761dnnyQ54j-Cl0NHfQN-6336" value="32" style="rounded=0;whiteSpace=wrap;html=1;" parent="2XZ_QVLFFnRoiWn84GSk-1" vertex="1">
          <mxGeometry x="970" y="430" width="320" height="320" as="geometry" />
        </mxCell>
        <mxCell id="761dnnyQ54j-Cl0NHfQN-6337" value="67" style="rounded=0;whiteSpace=wrap;html=1;" parent="2XZ_QVLFFnRoiWn84GSk-1" vertex="1">
          <mxGeometry width="670" height="670" as="geometry" />
        </mxCell>
        <mxCell id="761dnnyQ54j-Cl0NHfQN-6338" value="30" style="rounded=0;whiteSpace=wrap;html=1;" parent="2XZ_QVLFFnRoiWn84GSk-1" vertex="1">
          <mxGeometry x="670" y="340" width="300" height="300" as="geometry" />
        </mxCell>
        <mxCell id="761dnnyQ54j-Cl0NHfQN-6339" value="9" style="rounded=0;whiteSpace=wrap;html=1;" parent="2XZ_QVLFFnRoiWn84GSk-1" vertex="1">
          <mxGeometry x="970" y="340" width="90" height="90" as="geometry" />
        </mxCell>
        <mxCell id="761dnnyQ54j-Cl0NHfQN-6340" value="8" style="rounded=0;whiteSpace=wrap;html=1;" parent="2XZ_QVLFFnRoiWn84GSk-1" vertex="1">
          <mxGeometry x="1060" y="350" width="80" height="80" as="geometry" />
        </mxCell>
        <mxCell id="761dnnyQ54j-Cl0NHfQN-6341" value="15" style="rounded=0;whiteSpace=wrap;html=1;" parent="2XZ_QVLFFnRoiWn84GSk-1" vertex="1">
          <mxGeometry x="1140" y="280" width="150" height="150" as="geometry" />
        </mxCell>
        <mxCell id="761dnnyQ54j-Cl0NHfQN-6342" value="1" style="rounded=0;whiteSpace=wrap;html=1;" parent="2XZ_QVLFFnRoiWn84GSk-1" vertex="1">
          <mxGeometry x="1060" y="340" width="10" height="10" as="geometry" />
        </mxCell>
        <mxCell id="761dnnyQ54j-Cl0NHfQN-6343" value="7" style="rounded=0;whiteSpace=wrap;html=1;" parent="2XZ_QVLFFnRoiWn84GSk-1" vertex="1">
          <mxGeometry x="1070" y="280" width="70" height="70" as="geometry" />
        </mxCell>
        <mxCell id="761dnnyQ54j-Cl0NHfQN-6344" value="34" style="rounded=0;whiteSpace=wrap;html=1;" parent="2XZ_QVLFFnRoiWn84GSk-1" vertex="1">
          <mxGeometry x="670" width="340" height="340" as="geometry" />
        </mxCell>
        <mxCell id="761dnnyQ54j-Cl0NHfQN-6345" value="6" style="rounded=0;whiteSpace=wrap;html=1;" parent="2XZ_QVLFFnRoiWn84GSk-1" vertex="1">
          <mxGeometry x="1010" y="280" width="60" height="60" as="geometry" />
        </mxCell>
        <mxCell id="761dnnyQ54j-Cl0NHfQN-6346" value="28" style="rounded=0;whiteSpace=wrap;html=1;" parent="2XZ_QVLFFnRoiWn84GSk-1" vertex="1">
          <mxGeometry x="1010" width="280" height="280" as="geometry" />
        </mxCell>
        <mxCell id="2XZ_QVLFFnRoiWn84GSk-2" value="" style="group;flipV=1;" vertex="1" connectable="0" parent="1">
          <mxGeometry x="2730" y="1400" width="1290" height="1180" as="geometry" />
        </mxCell>
        <mxCell id="761dnnyQ54j-Cl0NHfQN-11210" value="46" style="rounded=0;whiteSpace=wrap;html=1;" parent="2XZ_QVLFFnRoiWn84GSk-2" vertex="1">
          <mxGeometry y="720" width="460" height="460" as="geometry" />
        </mxCell>
        <mxCell id="761dnnyQ54j-Cl0NHfQN-11211" value="28" style="rounded=0;whiteSpace=wrap;html=1;" parent="2XZ_QVLFFnRoiWn84GSk-2" vertex="1">
          <mxGeometry x="460" y="900" width="280" height="280" as="geometry" />
        </mxCell>
        <mxCell id="761dnnyQ54j-Cl0NHfQN-11212" value="17" style="rounded=0;whiteSpace=wrap;html=1;" parent="2XZ_QVLFFnRoiWn84GSk-2" vertex="1">
          <mxGeometry x="740" y="1010" width="170" height="170" as="geometry" />
        </mxCell>
        <mxCell id="761dnnyQ54j-Cl0NHfQN-11213" value="11" style="rounded=0;whiteSpace=wrap;html=1;" parent="2XZ_QVLFFnRoiWn84GSk-2" vertex="1">
          <mxGeometry x="910" y="1070" width="110" height="110" as="geometry" />
        </mxCell>
        <mxCell id="761dnnyQ54j-Cl0NHfQN-11214" value="27" style="rounded=0;whiteSpace=wrap;html=1;" parent="2XZ_QVLFFnRoiWn84GSk-2" vertex="1">
          <mxGeometry x="1020" y="910" width="270" height="270" as="geometry" />
        </mxCell>
        <mxCell id="761dnnyQ54j-Cl0NHfQN-11215" value="6" style="rounded=0;whiteSpace=wrap;html=1;" parent="2XZ_QVLFFnRoiWn84GSk-2" vertex="1">
          <mxGeometry x="910" y="1010" width="60" height="60" as="geometry" />
        </mxCell>
        <mxCell id="761dnnyQ54j-Cl0NHfQN-11216" value="5" style="rounded=0;whiteSpace=wrap;html=1;" parent="2XZ_QVLFFnRoiWn84GSk-2" vertex="1">
          <mxGeometry x="970" y="1020" width="50" height="50" as="geometry" />
        </mxCell>
        <mxCell id="761dnnyQ54j-Cl0NHfQN-11217" value="1" style="rounded=0;whiteSpace=wrap;html=1;" parent="2XZ_QVLFFnRoiWn84GSk-2" vertex="1">
          <mxGeometry x="970" y="1010" width="10" height="10" as="geometry" />
        </mxCell>
        <mxCell id="761dnnyQ54j-Cl0NHfQN-11218" value="4" style="rounded=0;whiteSpace=wrap;html=1;" parent="2XZ_QVLFFnRoiWn84GSk-2" vertex="1">
          <mxGeometry x="980" y="980" width="40" height="40" as="geometry" />
        </mxCell>
        <mxCell id="761dnnyQ54j-Cl0NHfQN-11219" value="21" style="rounded=0;whiteSpace=wrap;html=1;" parent="2XZ_QVLFFnRoiWn84GSk-2" vertex="1">
          <mxGeometry x="740" y="800" width="210" height="210" as="geometry" />
        </mxCell>
        <mxCell id="761dnnyQ54j-Cl0NHfQN-11220" value="3" style="rounded=0;whiteSpace=wrap;html=1;" parent="2XZ_QVLFFnRoiWn84GSk-2" vertex="1">
          <mxGeometry x="950" y="980" width="30" height="30" as="geometry" />
        </mxCell>
        <mxCell id="761dnnyQ54j-Cl0NHfQN-11221" value="7" style="rounded=0;whiteSpace=wrap;html=1;" parent="2XZ_QVLFFnRoiWn84GSk-2" vertex="1">
          <mxGeometry x="950" y="910" width="70" height="70" as="geometry" />
        </mxCell>
        <mxCell id="761dnnyQ54j-Cl0NHfQN-11222" value="18" style="rounded=0;whiteSpace=wrap;html=1;" parent="2XZ_QVLFFnRoiWn84GSk-2" vertex="1">
          <mxGeometry x="460" y="720" width="180" height="180" as="geometry" />
        </mxCell>
        <mxCell id="761dnnyQ54j-Cl0NHfQN-11223" value="10" style="rounded=0;whiteSpace=wrap;html=1;" parent="2XZ_QVLFFnRoiWn84GSk-2" vertex="1">
          <mxGeometry x="640" y="800" width="100" height="100" as="geometry" />
        </mxCell>
        <mxCell id="761dnnyQ54j-Cl0NHfQN-11224" value="34" style="rounded=0;whiteSpace=wrap;html=1;" parent="2XZ_QVLFFnRoiWn84GSk-2" vertex="1">
          <mxGeometry x="950" y="570" width="340" height="340" as="geometry" />
        </mxCell>
        <mxCell id="761dnnyQ54j-Cl0NHfQN-11225" value="8" style="rounded=0;whiteSpace=wrap;html=1;" parent="2XZ_QVLFFnRoiWn84GSk-2" vertex="1">
          <mxGeometry x="640" y="720" width="80" height="80" as="geometry" />
        </mxCell>
        <mxCell id="761dnnyQ54j-Cl0NHfQN-11226" value="23" style="rounded=0;whiteSpace=wrap;html=1;" parent="2XZ_QVLFFnRoiWn84GSk-2" vertex="1">
          <mxGeometry x="720" y="570" width="230" height="230" as="geometry" />
        </mxCell>
        <mxCell id="761dnnyQ54j-Cl0NHfQN-11227" value="72" style="rounded=0;whiteSpace=wrap;html=1;" parent="2XZ_QVLFFnRoiWn84GSk-2" vertex="1">
          <mxGeometry width="720" height="720" as="geometry" />
        </mxCell>
        <mxCell id="761dnnyQ54j-Cl0NHfQN-11228" value="57" style="rounded=0;whiteSpace=wrap;html=1;" parent="2XZ_QVLFFnRoiWn84GSk-2" vertex="1">
          <mxGeometry x="720" width="570" height="570" as="geometry" />
        </mxCell>
        <mxCell id="2XZ_QVLFFnRoiWn84GSk-3" value="" style="group;flipV=1;" vertex="1" connectable="0" parent="1">
          <mxGeometry x="2740" y="2720" width="1290" height="1220" as="geometry" />
        </mxCell>
        <mxCell id="761dnnyQ54j-Cl0NHfQN-16788" value="58" style="rounded=0;whiteSpace=wrap;html=1;" parent="2XZ_QVLFFnRoiWn84GSk-3" vertex="1">
          <mxGeometry y="640" width="580" height="580" as="geometry" />
        </mxCell>
        <mxCell id="761dnnyQ54j-Cl0NHfQN-16789" value="38" style="rounded=0;whiteSpace=wrap;html=1;" parent="2XZ_QVLFFnRoiWn84GSk-3" vertex="1">
          <mxGeometry x="580" y="840" width="380" height="380" as="geometry" />
        </mxCell>
        <mxCell id="761dnnyQ54j-Cl0NHfQN-16790" value="33" style="rounded=0;whiteSpace=wrap;html=1;" parent="2XZ_QVLFFnRoiWn84GSk-3" vertex="1">
          <mxGeometry x="960" y="890" width="330" height="330" as="geometry" />
        </mxCell>
        <mxCell id="761dnnyQ54j-Cl0NHfQN-16791" value="5" style="rounded=0;whiteSpace=wrap;html=1;" parent="2XZ_QVLFFnRoiWn84GSk-3" vertex="1">
          <mxGeometry x="960" y="840" width="50" height="50" as="geometry" />
        </mxCell>
        <mxCell id="761dnnyQ54j-Cl0NHfQN-16792" value="28" style="rounded=0;whiteSpace=wrap;html=1;" parent="2XZ_QVLFFnRoiWn84GSk-3" vertex="1">
          <mxGeometry x="1010" y="610" width="280" height="280" as="geometry" />
        </mxCell>
        <mxCell id="761dnnyQ54j-Cl0NHfQN-16793" value="20" style="rounded=0;whiteSpace=wrap;html=1;" parent="2XZ_QVLFFnRoiWn84GSk-3" vertex="1">
          <mxGeometry x="580" y="640" width="200" height="200" as="geometry" />
        </mxCell>
        <mxCell id="761dnnyQ54j-Cl0NHfQN-16794" value="23" style="rounded=0;whiteSpace=wrap;html=1;" parent="2XZ_QVLFFnRoiWn84GSk-3" vertex="1">
          <mxGeometry x="780" y="610" width="230" height="230" as="geometry" />
        </mxCell>
        <mxCell id="761dnnyQ54j-Cl0NHfQN-16795" value="64" style="rounded=0;whiteSpace=wrap;html=1;" parent="2XZ_QVLFFnRoiWn84GSk-3" vertex="1">
          <mxGeometry width="640" height="640" as="geometry" />
        </mxCell>
        <mxCell id="761dnnyQ54j-Cl0NHfQN-16796" value="14" style="rounded=0;whiteSpace=wrap;html=1;" parent="2XZ_QVLFFnRoiWn84GSk-3" vertex="1">
          <mxGeometry x="640" y="500" width="140" height="140" as="geometry" />
        </mxCell>
        <mxCell id="761dnnyQ54j-Cl0NHfQN-16797" value="11" style="rounded=0;whiteSpace=wrap;html=1;" parent="2XZ_QVLFFnRoiWn84GSk-3" vertex="1">
          <mxGeometry x="780" y="500" width="110" height="110" as="geometry" />
        </mxCell>
        <mxCell id="761dnnyQ54j-Cl0NHfQN-16798" value="15" style="rounded=0;whiteSpace=wrap;html=1;" parent="2XZ_QVLFFnRoiWn84GSk-3" vertex="1">
          <mxGeometry x="890" y="460" width="150" height="150" as="geometry" />
        </mxCell>
        <mxCell id="761dnnyQ54j-Cl0NHfQN-16799" value="21" style="rounded=0;whiteSpace=wrap;html=1;" parent="2XZ_QVLFFnRoiWn84GSk-3" vertex="1">
          <mxGeometry x="640" y="290" width="210" height="210" as="geometry" />
        </mxCell>
        <mxCell id="761dnnyQ54j-Cl0NHfQN-16800" value="4" style="rounded=0;whiteSpace=wrap;html=1;" parent="2XZ_QVLFFnRoiWn84GSk-3" vertex="1">
          <mxGeometry x="850" y="460" width="40" height="40" as="geometry" />
        </mxCell>
        <mxCell id="761dnnyQ54j-Cl0NHfQN-16801" value="25" style="rounded=0;whiteSpace=wrap;html=1;" parent="2XZ_QVLFFnRoiWn84GSk-3" vertex="1">
          <mxGeometry x="1040" y="360" width="250" height="250" as="geometry" />
        </mxCell>
        <mxCell id="761dnnyQ54j-Cl0NHfQN-16802" value="9" style="rounded=0;whiteSpace=wrap;html=1;" parent="2XZ_QVLFFnRoiWn84GSk-3" vertex="1">
          <mxGeometry x="850" y="370" width="90" height="90" as="geometry" />
        </mxCell>
        <mxCell id="761dnnyQ54j-Cl0NHfQN-16803" value="10" style="rounded=0;whiteSpace=wrap;html=1;" parent="2XZ_QVLFFnRoiWn84GSk-3" vertex="1">
          <mxGeometry x="940" y="360" width="100" height="100" as="geometry" />
        </mxCell>
        <mxCell id="761dnnyQ54j-Cl0NHfQN-16804" value="8" style="rounded=0;whiteSpace=wrap;html=1;" parent="2XZ_QVLFFnRoiWn84GSk-3" vertex="1">
          <mxGeometry x="850" y="290" width="80" height="80" as="geometry" />
        </mxCell>
        <mxCell id="761dnnyQ54j-Cl0NHfQN-16805" value="1" style="rounded=0;whiteSpace=wrap;html=1;" parent="2XZ_QVLFFnRoiWn84GSk-3" vertex="1">
          <mxGeometry x="930" y="360" width="10" height="10" as="geometry" />
        </mxCell>
        <mxCell id="761dnnyQ54j-Cl0NHfQN-16806" value="36" style="rounded=0;whiteSpace=wrap;html=1;" parent="2XZ_QVLFFnRoiWn84GSk-3" vertex="1">
          <mxGeometry x="930" width="360" height="360" as="geometry" />
        </mxCell>
        <mxCell id="761dnnyQ54j-Cl0NHfQN-16807" value="29" style="rounded=0;whiteSpace=wrap;html=1;" parent="2XZ_QVLFFnRoiWn84GSk-3" vertex="1">
          <mxGeometry x="640" width="290" height="290" as="geometry" />
        </mxCell>
        <mxCell id="2XZ_QVLFFnRoiWn84GSk-4" value="" style="group;flipV=1;" vertex="1" connectable="0" parent="1">
          <mxGeometry x="2740" y="4170" width="1290" height="1180" as="geometry" />
        </mxCell>
        <mxCell id="761dnnyQ54j-Cl0NHfQN-39053" value="42" style="rounded=0;whiteSpace=wrap;html=1;" parent="2XZ_QVLFFnRoiWn84GSk-4" vertex="1">
          <mxGeometry y="760" width="420" height="420" as="geometry" />
        </mxCell>
        <mxCell id="761dnnyQ54j-Cl0NHfQN-39054" value="54" style="rounded=0;whiteSpace=wrap;html=1;" parent="2XZ_QVLFFnRoiWn84GSk-4" vertex="1">
          <mxGeometry x="420" y="640" width="540" height="540" as="geometry" />
        </mxCell>
        <mxCell id="761dnnyQ54j-Cl0NHfQN-39055" value="33" style="rounded=0;whiteSpace=wrap;html=1;" parent="2XZ_QVLFFnRoiWn84GSk-4" vertex="1">
          <mxGeometry x="960" y="850" width="330" height="330" as="geometry" />
        </mxCell>
        <mxCell id="761dnnyQ54j-Cl0NHfQN-39056" value="13" style="rounded=0;whiteSpace=wrap;html=1;" parent="2XZ_QVLFFnRoiWn84GSk-4" vertex="1">
          <mxGeometry x="960" y="720" width="130" height="130" as="geometry" />
        </mxCell>
        <mxCell id="761dnnyQ54j-Cl0NHfQN-39057" value="20" style="rounded=0;whiteSpace=wrap;html=1;" parent="2XZ_QVLFFnRoiWn84GSk-4" vertex="1">
          <mxGeometry x="1090" y="650" width="200" height="200" as="geometry" />
        </mxCell>
        <mxCell id="761dnnyQ54j-Cl0NHfQN-39058" value="8" style="rounded=0;whiteSpace=wrap;html=1;" parent="2XZ_QVLFFnRoiWn84GSk-4" vertex="1">
          <mxGeometry x="960" y="640" width="80" height="80" as="geometry" />
        </mxCell>
        <mxCell id="761dnnyQ54j-Cl0NHfQN-39059" value="5" style="rounded=0;whiteSpace=wrap;html=1;" parent="2XZ_QVLFFnRoiWn84GSk-4" vertex="1">
          <mxGeometry x="1040" y="670" width="50" height="50" as="geometry" />
        </mxCell>
        <mxCell id="761dnnyQ54j-Cl0NHfQN-39060" value="3" style="rounded=0;whiteSpace=wrap;html=1;" parent="2XZ_QVLFFnRoiWn84GSk-4" vertex="1">
          <mxGeometry x="1040" y="640" width="30" height="30" as="geometry" />
        </mxCell>
        <mxCell id="761dnnyQ54j-Cl0NHfQN-39061" value="2" style="rounded=0;whiteSpace=wrap;html=1;" parent="2XZ_QVLFFnRoiWn84GSk-4" vertex="1">
          <mxGeometry x="1070" y="650" width="20" height="20" as="geometry" />
        </mxCell>
        <mxCell id="761dnnyQ54j-Cl0NHfQN-39062" value="22" style="rounded=0;whiteSpace=wrap;html=1;" parent="2XZ_QVLFFnRoiWn84GSk-4" vertex="1">
          <mxGeometry x="1070" y="430" width="220" height="220" as="geometry" />
        </mxCell>
        <mxCell id="761dnnyQ54j-Cl0NHfQN-39063" value="30" style="rounded=0;whiteSpace=wrap;html=1;" parent="2XZ_QVLFFnRoiWn84GSk-4" vertex="1">
          <mxGeometry y="460" width="300" height="300" as="geometry" />
        </mxCell>
        <mxCell id="761dnnyQ54j-Cl0NHfQN-39064" value="12" style="rounded=0;whiteSpace=wrap;html=1;" parent="2XZ_QVLFFnRoiWn84GSk-4" vertex="1">
          <mxGeometry x="300" y="640" width="120" height="120" as="geometry" />
        </mxCell>
        <mxCell id="761dnnyQ54j-Cl0NHfQN-39065" value="18" style="rounded=0;whiteSpace=wrap;html=1;" parent="2XZ_QVLFFnRoiWn84GSk-4" vertex="1">
          <mxGeometry x="300" y="460" width="180" height="180" as="geometry" />
        </mxCell>
        <mxCell id="761dnnyQ54j-Cl0NHfQN-39066" value="14" style="rounded=0;whiteSpace=wrap;html=1;" parent="2XZ_QVLFFnRoiWn84GSk-4" vertex="1">
          <mxGeometry x="480" y="500" width="140" height="140" as="geometry" />
        </mxCell>
        <mxCell id="761dnnyQ54j-Cl0NHfQN-39067" value="24" style="rounded=0;whiteSpace=wrap;html=1;" parent="2XZ_QVLFFnRoiWn84GSk-4" vertex="1">
          <mxGeometry x="620" y="400" width="240" height="240" as="geometry" />
        </mxCell>
        <mxCell id="761dnnyQ54j-Cl0NHfQN-39068" value="4" style="rounded=0;whiteSpace=wrap;html=1;" parent="2XZ_QVLFFnRoiWn84GSk-4" vertex="1">
          <mxGeometry x="480" y="460" width="40" height="40" as="geometry" />
        </mxCell>
        <mxCell id="761dnnyQ54j-Cl0NHfQN-39069" value="10" style="rounded=0;whiteSpace=wrap;html=1;" parent="2XZ_QVLFFnRoiWn84GSk-4" vertex="1">
          <mxGeometry x="520" y="400" width="100" height="100" as="geometry" />
        </mxCell>
        <mxCell id="761dnnyQ54j-Cl0NHfQN-39070" value="21" style="rounded=0;whiteSpace=wrap;html=1;" parent="2XZ_QVLFFnRoiWn84GSk-4" vertex="1">
          <mxGeometry x="860" y="430" width="210" height="210" as="geometry" />
        </mxCell>
        <mxCell id="761dnnyQ54j-Cl0NHfQN-39071" value="43" style="rounded=0;whiteSpace=wrap;html=1;" parent="2XZ_QVLFFnRoiWn84GSk-4" vertex="1">
          <mxGeometry x="860" width="430" height="430" as="geometry" />
        </mxCell>
        <mxCell id="761dnnyQ54j-Cl0NHfQN-39072" value="46" style="rounded=0;whiteSpace=wrap;html=1;" parent="2XZ_QVLFFnRoiWn84GSk-4" vertex="1">
          <mxGeometry width="460" height="460" as="geometry" />
        </mxCell>
        <mxCell id="761dnnyQ54j-Cl0NHfQN-39073" value="6" style="rounded=0;whiteSpace=wrap;html=1;" parent="2XZ_QVLFFnRoiWn84GSk-4" vertex="1">
          <mxGeometry x="460" y="400" width="60" height="60" as="geometry" />
        </mxCell>
        <mxCell id="761dnnyQ54j-Cl0NHfQN-39074" value="40" style="rounded=0;whiteSpace=wrap;html=1;" parent="2XZ_QVLFFnRoiWn84GSk-4" vertex="1">
          <mxGeometry x="460" width="400" height="400" as="geometry" />
        </mxCell>
      </root>
    </mxGraphModel>
  </diagram>
</mxfile>
